<?xml version="1.0" standalone="no"?><!DOCTYPE svg PUBLIC "-//W3C//DTD SVG 1.1//EN" "http://www.w3.org/Graphics/SVG/1.1/DTD/svg11.dtd"><svg t="1704536753136" class="icon" viewBox="0 0 1060 1024" version="1.1" xmlns="http://www.w3.org/2000/svg" p-id="10570" xmlns:xlink="http://www.w3.org/1999/xlink" width="207.03125" height="200"><path d="M950.857143 365.714286q0-45.714286-32-77.714286t-77.714286-32h-36.571428v219.428571h36.571428q45.714286 0 77.714286-32t32-77.714285zM0 804.571429h1024q0 60.571429-42.857143 103.428571t-103.428571 42.857143H146.285714q-60.571429 0-103.428571-42.857143t-42.857143-103.428571z m1060.571429-438.857143q0 90.857143-64.285715 155.142857T841.142857 585.142857h-36.571428v18.285714q0 52.571429-37.714286 90.285715t-90.285714 37.714285H274.285714q-52.571429 0-90.285714-37.714285t-37.714286-90.285715V182.857143q0-14.857143 10.857143-25.714286t25.714286-10.857143h658.285714q90.857143 0 155.142857 64.285715T1060.571429 365.714286z" p-id="10571" fill="currentColor"></path></svg>