<?xml version="1.0" standalone="no"?><!DOCTYPE svg PUBLIC "-//W3C//DTD SVG 1.1//EN" "http://www.w3.org/Graphics/SVG/1.1/DTD/svg11.dtd"><svg t="1704537070455" class="icon" viewBox="0 0 1024 1024" version="1.1" xmlns="http://www.w3.org/2000/svg" p-id="11781" xmlns:xlink="http://www.w3.org/1999/xlink" width="200" height="200"><path d="M313.288119 769.704584L251.495779 707.912244c-16.997893-16.997893-22.997149-41.594844-15.398091-64.392018 5.999256-17.797794 13.998265-40.994918 23.597075-67.591621H48.12099c-17.197868 0-33.195885-9.19886-41.794818-24.197s-8.398959-33.39586 0.39995-48.194026l104.986985-176.978061c25.996777-43.794571 72.990952-70.591249 123.784655-70.591249H400.07736c4.799405-7.999008 9.59881-15.398091 14.398215-22.597199C578.255272-8.198984 822.225029-16.197992 967.806982 10.598686c23.197124 4.199479 41.194893 22.397224 45.594348 45.594348 26.796678 145.781928 18.597695 389.551709-222.772384 553.331406-6.999132 4.799405-14.59819 9.59881-22.597199 14.398216v164.579597c0 50.793703-26.796678 97.987853-70.591249 123.784655l-176.978061 104.986986c-14.798166 8.798909-33.195885 8.998884-48.194026 0.39995S448.071411 993.276869 448.071411 975.879025V761.5056c-28.196505 9.798785-52.793455 17.797794-71.39115 23.79705-22.397224 7.199108-46.794199 0.999876-63.592117-15.598066zM768.031747 335.958353a79.990084 79.990084 0 1 0 0-159.980168 79.990084 79.990084 0 1 0 0 159.980168z" p-id="11782" fill="currentColor"></path></svg>