<svg t="1704765395519" class="icon" viewBox="0 0 1024 1024" version="1.1" xmlns="http://www.w3.org/2000/svg" p-id="12890" width="200" height="200"><path d="M810.666667 170.666667h-42.666667V106.666667a21.333333 21.333333 0 0 0-21.333333-21.333334h-42.666667a21.333333 21.333333 0 0 0-21.333333 21.333334V170.666667H341.333333V106.666667a21.333333 21.333333 0 0 0-21.333333-21.333334h-42.666667a21.333333 21.333333 0 0 0-21.333333 21.333334V170.666667H213.333333a85.333333 85.333333 0 0 0-85.333333 85.333333v554.666667a85.333333 85.333333 0 0 0 85.333333 85.333333h597.333334a85.333333 85.333333 0 0 0 85.333333-85.333333V256a85.333333 85.333333 0 0 0-85.333333-85.333333z m0 640H213.333333V341.333333h597.333334z" p-id="12891" fill="currentColor"></path></svg>