<svg t="1705825651678" class="icon" viewBox="0 0 1024 1024" version="1.1" xmlns="http://www.w3.org/2000/svg" p-id="9517" width="200" height="200"><path d="M512 916.603c-16.582 0-31.291-4.428-44.969-13.538l-3.062-2.039-1.946-1.947c-1.558-1.332-5.849-4.849-10.01-8.261-23.233-19.045-77.639-63.645-134.891-117.33-72.301-67.797-124.967-127.34-156.544-176.986-16.095-24.157-32.775-50.805-45.887-81.948-15.94-37.858-23.688-75.257-23.688-114.333 0-70.88 25.586-137.938 72.044-188.821 22.888-25.068 49.586-44.804 79.352-58.658 31.185-14.516 64.288-21.875 98.388-21.875 37.008 0 74.488 9.248 108.388 26.745 23.061 11.902 44.604 27.695 63.552 46.474 45.263-46.359 106.81-73.219 170.484-73.219 34.1 0 67.202 7.36 98.387 21.875 29.766 13.854 56.464 33.59 79.353 58.658 46.46 50.883 72.046 117.941 72.046 188.821 0 83.49-36.729 143.023-63.548 186.493-1.859 3.014-3.689 5.979-5.475 8.901l-0.161 0.26c-86.218 138.47-303.006 304.381-305.157 305.994l-0.825 0.619-0.858 0.572c-13.675 9.113-28.386 13.543-44.973 13.543z m-50.601-18.149l0.107 0.107-0.107-0.107z m48.121-56.121c0.571 0.222 1.198 0.271 2.48 0.271 1.745 0 2.273-0.09 3.102-0.583 14.581-11.26 210.39-164.119 285.805-285.116 1.816-2.97 3.675-5.984 5.564-9.046 24.621-39.907 52.526-85.138 52.526-147.638 0-107.719-78.857-195.354-175.786-195.354-51.832 0-101.908 26.305-133.952 70.366l-1.047 1.44-34.25 38.662-35.126-37.936-1.008-1.305c-34.977-45.266-84.926-71.227-137.042-71.227-96.928 0-175.784 87.636-175.784 195.354 0 64.146 28.343 112.028 57.374 155.574l0.454 0.698c44.561 70.214 137.453 163.443 276.097 277.097 5.282 4.33 8.46 6.939 10.593 8.743z" fill="currentColor" p-id="9518"></path></svg>