<svg t="1704765125443" class="icon" viewBox="0 0 1024 1024" version="1.1" xmlns="http://www.w3.org/2000/svg" p-id="9853" width="200" height="200"><path d="M512 832c35.36 0 64 28.64 64 64l0 64c0 35.36-28.64 64-64 64s-64-28.64-64-64l0-64c0-35.36 28.64-64 64-64zM512 192c-35.36 0-64-28.64-64-64l0-64c0-35.36 28.64-64 64-64s64 28.64 64 64l0 64c0 35.36-28.64 64-64 64zM960 448c35.36 0 64 28.64 64 64s-28.64 64-64 64l-64 0c-35.36 0-64-28.64-64-64s28.64-64 64-64l64 0zM192 512c0 35.36-28.64 64-64 64l-64 0c-35.36 0-64-28.64-64-64s28.64-64 64-64l64 0c35.36 0 64 28.64 64 64zM828.768 738.272l45.248 45.248c24.992 24.992 24.992 65.504 0 90.496s-65.504 24.992-90.496 0l-45.248-45.248c-24.992-24.992-24.992-65.504 0-90.496s65.504-24.992 90.496 0zM195.232 285.728l-45.248-45.248c-24.992-24.992-24.992-65.504 0-90.496s65.504-24.992 90.496 0l45.248 45.248c24.992 24.992 24.992 65.504 0 90.496s-65.504 24.992-90.496 0zM828.768 285.728c-24.992 24.992-65.504 24.992-90.496 0s-24.992-65.504 0-90.496l45.248-45.248c24.992-24.992 65.504-24.992 90.496 0s24.992 65.504 0 90.496l-45.248 45.248zM195.232 738.272c24.992-24.992 65.504-24.992 90.496 0s24.992 65.504 0 90.496l-45.248 45.248c-24.992 24.992-65.504 24.992-90.496 0s-24.992-65.504 0-90.496l45.248-45.248z" fill="currentColor" p-id="9854"></path><path d="M512 256c-141.376 0-256 114.624-256 256s114.624 256 256 256c141.376 0 256-114.624 256-256s-114.624-256-256-256zM512 672c-88.352 0-160-71.648-160-160s71.648-160 160-160 160 71.648 160 160-71.648 160-160 160z" fill="currentColor" p-id="9855"></path></svg>